<svg width="100px" height="60px" viewBox="0 0 100 60" version="1.1" xmlns="http://www.w3.org/2000/svg" xmlns:xlink="http://www.w3.org/1999/xlink">
    <g id="Page-1" stroke="none" stroke-width="1" fill="none" fill-rule="evenodd" fill-opacity="0.2">
        <g id="startpage-1920" transform="translate(-910.000000, -32.000000)" fill="#558099">
            <path d="M992.352244,49.5 L992.351236,49.5 L982.266804,49.5 L967.752029,49.5 C965.971118,45.66325 963.397571,42.26125 960.240136,39.5 L992.352244,39.5 L1002.43668,39.5 C1002.43668,45.02275 997.921876,49.5 992.352244,49.5 Z M982.266804,67 L970.506591,67 L970.506591,62 C970.506591,60.29675 970.360367,58.6265 970.084054,57 L982.266804,57 L992.351236,57 C992.351236,62.52275 987.836436,67 982.266804,67 Z M1002.43668,32 L1010,32 L1010,39.5 C1010,46.46725 1005.87194,52.49475 999.91456,55.3085 L999.91456,57 C999.91456,66.6495 991.997776,74.5 982.266804,74.5 L970.506591,74.5 L970.506591,84.5 L970.506591,92 L962.943268,92 L952.858836,92 L940.253296,92 C923.571628,92 910,78.542 910,62 C910,48.04675 919.656096,36.288 932.689972,32.949 C935.107966,32.32975 937.642436,32 940.253296,32 L992.352244,32 L1002.43668,32 Z M962.943268,74.5 L962.943268,62 C962.943268,49.5935 952.764546,39.5 940.253296,39.5 C927.742045,39.5 917.563324,49.5935 917.563324,62 C917.563324,74.4065 927.742045,84.5 940.253296,84.5 L952.858836,84.5 L962.943268,84.5 L962.943268,74.5 Z M940.268444,49.59995 C947.178018,49.59995 952.779442,55.151678 952.779442,61.99995 L952.779442,74.39995 L940.268444,74.39995 C933.358869,74.39995 927.757445,68.848222 927.757445,61.99995 C927.757445,55.151678 933.358869,49.59995 940.268444,49.59995 Z M945.272843,66.95995 L945.272843,61.99995 C945.272843,59.265006 943.027869,57.03995 940.268444,57.03995 C937.509018,57.03995 935.264044,59.265006 935.264044,61.99995 C935.264044,64.734894 937.509018,66.95995 940.268444,66.95995 L945.272843,66.95995 Z" id="af-logo"></path>
        </g>
    </g>
</svg>