<svg width="100" height="60" xmlns="http://www.w3.org/2000/svg"><path d="M82.352 17.5h-24.6a30.182 30.182 0 0 0-7.512-10h42.197c0 5.523-4.515 10-10.085 10zM72.267 35h-11.76v-5c0-1.703-.147-3.373-.423-5h22.267c0 5.523-4.515 10-10.084 10zm20.17-35H100v7.5c0 6.967-4.128 12.995-10.085 15.809V25c0 9.65-7.917 17.5-17.648 17.5h-11.76V60H30.253C13.572 60 0 46.542 0 30 0 16.047 9.656 4.288 22.69.949A30.452 30.452 0 0 1 30.253 0h62.184zM52.943 42.5V30c0-12.407-10.178-22.5-22.69-22.5-12.511 0-22.69 10.093-22.69 22.5 0 12.406 10.179 22.5 22.69 22.5H52.943v-10zM30.268 17.6c6.91 0 12.511 5.552 12.511 12.4v12.4H30.27c-6.91 0-12.512-5.552-12.512-12.4 0-6.848 5.602-12.4 12.511-12.4zm5.005 17.36V30c0-2.735-2.245-4.96-5.005-4.96-2.759 0-5.004 2.225-5.004 4.96s2.245 4.96 5.004 4.96h5.005z" fill="#558099" fill-rule="evenodd" fill-opacity=".2"/></svg>