<svg width="40" height="40" viewBox="0 0 40 40"  xmlns="http://www.w3.org/2000/svg">
<path d="M20 0C8.9725 0 0 8.9725 0 20C0 31.0275 8.9725 40 20 40C31.0275 40 40 31.0275 40 20C40 8.9725 31.0275 0 20 0ZM20 37.5C10.35 37.5 2.5 29.6475 2.5 20C2.5 10.35 10.35 2.5 20 2.5C29.6475 2.5 37.5 10.35 37.5 20C37.5 29.6475 29.6475 37.5 20 37.5Z" />
<path d="M20.0001 5C18.9501 5 17.9251 5.11 16.9351 5.315C18.7551 7.895 20.4076 10.58 21.8626 13.3625C24.6151 12.08 27.2051 10.425 29.5701 8.45C26.9726 6.295 23.6376 5 20.0001 5Z" />
<path d="M31.3526 10.2151C28.7801 12.3826 25.9501 14.1801 22.9451 15.5851C23.6026 16.9551 24.2126 18.3426 24.7776 19.7526C28.0976 19.0701 31.5526 19.0076 34.9776 19.5751C34.8776 16.0001 33.5326 12.7401 31.3526 10.2151Z" />
<path d="M14.425 6.08252C9.92246 7.88752 6.50746 11.8075 5.39746 16.62C10.2525 16.8275 15.0575 16.0175 19.53 14.31C18.0275 11.4575 16.325 8.70752 14.425 6.08252Z" />
<path d="M20.65 16.5725C16.32 18.26 11.695 19.18 6.9925 19.18C6.345 19.18 5.695 19.14 5.045 19.105C5.0275 19.4025 5 19.6975 5 20C5 23.6825 6.3325 27.0525 8.535 29.6625C12.1375 25.19 16.98 21.985 22.34 20.375C21.8175 19.09 21.2525 17.825 20.65 16.5725Z" />
<path d="M25.6951 22.1199C26.8876 25.4449 27.8226 28.8624 28.5076 32.3474C31.8876 30.0149 34.2476 26.3324 34.8401 22.0774C31.7751 21.5349 28.6776 21.5599 25.6951 22.1199Z" />
<path d="M23.24 22.7C18.2001 24.1725 13.6476 27.1975 10.3101 31.44C12.9251 33.6575 16.3026 35 20.0001 35C22.2201 35 24.3226 34.505 26.2176 33.6375C25.5301 29.9025 24.53 26.2475 23.24 22.7Z" />
</svg>
