<svg width="40" height="40" viewBox="0 0 40 40" fill="none" xmlns="http://www.w3.org/2000/svg">
<path d="M20 0C16.0444 0 12.1776 1.17298 8.8886 3.37061C5.59962 5.56823 3.03617 8.69181 1.52242 12.3463C0.00866565 16.0009 -0.387401 20.0222 0.384303 23.9018C1.15601 27.7814 3.06082 31.3451 5.85787 34.1421C8.65492 36.9392 12.2186 38.844 16.0982 39.6157C19.9778 40.3874 23.9991 39.9913 27.6537 38.4776C31.3082 36.9638 34.4318 34.4004 36.6294 31.1114C38.827 27.8224 40 23.9556 40 20C40 14.6957 37.8929 9.60859 34.1421 5.85786C30.3914 2.10714 25.3043 0 20 0V0ZM28.8 13.2L20 19.784L11.2 13.2H28.8ZM30 26.08C29.9998 26.184 29.9774 26.2867 29.9343 26.3812C29.8911 26.4758 29.8281 26.56 29.7497 26.6282C29.6713 26.6965 29.5791 26.7471 29.4795 26.7767C29.3798 26.8063 29.275 26.8143 29.172 26.8H10.8C10.6949 26.8113 10.5886 26.7995 10.4886 26.7654C10.3886 26.7313 10.2973 26.6756 10.221 26.6025C10.1448 26.5293 10.0855 26.4403 10.0473 26.3417C10.0091 26.2432 9.99298 26.1374 10 26.032C10 22.3813 10 18.7307 10 15.08V14.068L13.256 16.512L19.4 21.12C19.5601 21.2773 19.7756 21.3655 20 21.3655C20.2245 21.3655 20.4399 21.2773 20.6 21.12L29.824 14.196L29.976 14.084C29.986 14.1422 29.9927 14.201 29.996 14.26V26.064L30 26.08Z" fill="#A1B8C5"/>
</svg>
