<svg width="36" height="36" viewBox="0 0 36 36" fill="none" xmlns="http://www.w3.org/2000/svg">
<path fill-rule="evenodd" clip-rule="evenodd" d="M2.59634 0H33.4037C34.8376 0 36 1.16235 36 2.59634V33.4037C36 34.8376 34.8376 36 33.4037 36H2.59634C1.16235 36 0 34.8376 0 33.4037V2.59634C0 1.16235 1.16235 0 2.59634 0ZM30.5156 8.57324L28.5183 10.4783C28.3473 10.6062 28.2597 10.8225 28.2962 11.0336V25.0377C28.2597 25.2478 28.3483 25.4641 28.5194 25.593L30.4697 27.4971V27.9141H20.6533V27.496L22.6767 25.5442C22.8727 25.3487 22.8728 25.2873 22.8728 24.9889V13.6739L17.248 27.8777H16.4877L9.9462 13.6739V23.193C9.88883 23.5954 10.0234 23.9958 10.3081 24.2849L12.9364 27.4555V27.8725H5.48438V27.4607L8.11266 24.2849C8.39217 23.9968 8.5215 23.5892 8.44954 23.193V12.1879C8.47978 11.8832 8.36088 11.5806 8.13352 11.3737L5.80039 8.57324V8.15625H13.0553L18.6654 20.3936L23.5966 8.15625H30.5156V8.57324Z" fill="#A1B8C5"/>
</svg>
