<svg width="27" height="16" viewBox="0 0 27 16" fill="none" xmlns="http://www.w3.org/2000/svg">
<path fill-rule="evenodd" clip-rule="evenodd" d="M21.9604 4.66667H21.9607C23.4459 4.66667 24.6499 3.47273 24.6499 2H21.9607H13.3975C14.2394 2.73633 14.9257 3.64353 15.4006 4.66667H19.2712H21.9604ZM16.1351 9.33333H19.2712C20.7564 9.33333 21.9604 8.1394 21.9604 6.66667H19.2712H16.0225C16.0961 7.1004 16.1351 7.5458 16.1351 8V9.33333ZM21.9606 0H24.6498H26.6667V2C26.6667 3.85793 25.5658 5.46527 23.9772 6.2156V6.66667C23.9772 9.23987 21.8661 11.3333 19.2711 11.3333H16.1351V14V16H14.1182H11.429H8.06754C3.6191 16 0 12.4112 0 8C0 4.27913 2.57496 1.14347 6.05066 0.253067C6.69546 0.0879333 7.37132 0 8.06754 0H21.9606ZM14.1182 14V11.3333V8C14.1182 4.6916 11.4039 2 8.06759 2C4.73125 2 2.01693 4.6916 2.01693 8C2.01693 11.3084 4.73125 14 8.06759 14H11.4291H14.1182ZM8.07162 4.69336C6.22906 4.69336 4.73535 6.17382 4.73535 8.00003C4.73535 9.82623 6.22906 11.3067 8.07162 11.3067H11.4079V8.00003C11.4079 6.17382 9.91417 4.69336 8.07162 4.69336ZM8.07148 9.3227H9.40598V8.00003C9.40598 7.27072 8.80732 6.67737 8.07148 6.67737C7.33563 6.67737 6.73697 7.27072 6.73697 8.00003C6.73697 8.72935 7.33563 9.3227 8.07148 9.3227Z" fill="#D9E4EA"/>
<path fill-rule="evenodd" clip-rule="evenodd" d="M21.9604 4.66667H21.9607C23.4459 4.66667 24.6499 3.47273 24.6499 2H21.9607H13.3975C14.2394 2.73633 14.9257 3.64353 15.4006 4.66667H19.2712H21.9604ZM16.1351 9.33333H19.2712C20.7564 9.33333 21.9604 8.1394 21.9604 6.66667H19.2712H16.0225C16.0961 7.1004 16.1351 7.5458 16.1351 8V9.33333ZM21.9606 0H24.6498H26.6667V2C26.6667 3.85793 25.5658 5.46527 23.9772 6.2156V6.66667C23.9772 9.23987 21.8661 11.3333 19.2711 11.3333H16.1351V14V16H14.1182H11.429H8.06754C3.6191 16 0 12.4112 0 8C0 4.27913 2.57496 1.14347 6.05066 0.253067C6.69546 0.0879333 7.37132 0 8.06754 0H21.9606ZM14.1182 14V11.3333V8C14.1182 4.6916 11.4039 2 8.06759 2C4.73125 2 2.01693 4.6916 2.01693 8C2.01693 11.3084 4.73125 14 8.06759 14H11.4291H14.1182ZM8.07162 4.69336C6.22906 4.69336 4.73535 6.17382 4.73535 8.00003C4.73535 9.82623 6.22906 11.3067 8.07162 11.3067H11.4079V8.00003C11.4079 6.17382 9.91417 4.69336 8.07162 4.69336ZM8.07148 9.3227H9.40598V8.00003C9.40598 7.27072 8.80732 6.67737 8.07148 6.67737C7.33563 6.67737 6.73697 7.27072 6.73697 8.00003C6.73697 8.72935 7.33563 9.3227 8.07148 9.3227Z" fill="#D9E4EA"/>
</svg>
