<svg width="16" height="17" viewBox="0 0 16 17" fill="none" xmlns="http://www.w3.org/2000/svg">
<g clip-path="url(#clip0)">
<path d="M5.66687 16.5003C7.13885 16.5003 8.3335 15.3056 8.3335 13.8335V11.1667H5.66687C4.19489 11.1667 3.00024 12.3615 3.00024 13.8335C3.00024 15.3056 4.19489 16.5003 5.66687 16.5003Z" fill="#406C85"/>
<path d="M3.00024 8.49988C3.00024 7.0279 4.19489 5.83325 5.66687 5.83325H8.3335V11.1665H5.66687C4.19489 11.1665 3.00024 9.97186 3.00024 8.49988Z" fill="#406C85"/>
<path d="M3 3.16667C3 1.69467 4.19465 0.5 5.66663 0.5H8.33325V5.83333H5.66663C4.19465 5.83333 3 4.63867 3 3.16667Z" fill="#406C85"/>
<path d="M8.33374 0.5H11.0004C12.4725 0.5 13.6672 1.69467 13.6672 3.16667C13.6672 4.63867 12.4725 5.83333 11.0004 5.83333H8.33374V0.5Z" fill="#406C85"/>
<path d="M13.6672 8.49988C13.6672 9.97186 12.4725 11.1665 11.0004 11.1665C9.52843 11.1665 8.33374 9.97186 8.33374 8.49988C8.33374 7.0279 9.52843 5.83325 11.0004 5.83325C12.4725 5.83325 13.6672 7.0279 13.6672 8.49988Z" fill="#406C85"/>
</g>
<defs>
<clipPath id="clip0">
<rect width="16" height="16" fill="white" transform="translate(0 0.5)"/>
</clipPath>
</defs>
</svg>
