<svg width="16" height="17" viewBox="0 0 16 17" fill="none" xmlns="http://www.w3.org/2000/svg">
<g clip-path="url(#clip0)">
<path fill-rule="evenodd" clip-rule="evenodd" d="M8.5559 0.5H3.09052C2.50942 0.5 2 1.00878 2 1.59116V15.4088C2 15.9906 2.50878 16.5 3.09116 16.5H12.5455C13.1272 16.5 13.6367 15.9912 13.6367 15.4088V5.58012H10.3632C9.38559 5.58012 8.5559 4.75043 8.5559 3.77283V0.5ZM9.27267 0.5L13.6367 4.86335L10.3632 4.86334C9.78145 4.86334 9.27267 4.35456 9.27267 3.77283L9.27267 0.5ZM4.90868 12.136H10.7267V11.409H4.90932L4.90868 12.136ZM4.90868 13.5907H9.27203V12.8637H4.90868V13.5907ZM4.90868 8.49968V9.22669H10.7267V8.49968H4.90868ZM4.90868 10.6814H10.7267V9.95434H4.90932L4.90868 10.6814Z" fill="#406C85"/>
</g>
<defs>
<clipPath id="clip0">
<rect width="16" height="16" fill="white" transform="translate(0 0.5)"/>
</clipPath>
</defs>
</svg>
