<svg width="16" height="17" viewBox="0 0 16 17" fill="none" xmlns="http://www.w3.org/2000/svg">
<g clip-path="url(#clip0)">
<path fill-rule="evenodd" clip-rule="evenodd" d="M1.45044 0.5H14.5496C15.3506 0.5 16 1.14938 16 1.95044V15.0496C16 15.8506 15.3506 16.5 14.5496 16.5H1.45044C0.649375 16.5 0 15.8506 0 15.0496V1.95044C0 1.14938 0.649375 0.5 1.45044 0.5ZM6.32447 4.57083C6.32447 5.11721 5.87891 5.53409 5.34703 5.53409C4.81516 5.53409 4.36972 5.11715 4.36972 4.57083C4.36972 4.02483 4.81516 3.60801 5.34703 3.60801C5.87891 3.60801 6.32447 4.02483 6.32447 4.57083ZM3.23416 11.4152C3.23416 11.1999 3.26297 10.936 3.32041 10.6916H3.32047L4.05341 7.69699H2.91797L3.26297 6.42423H5.99397L4.91584 10.7008C4.84397 10.9741 4.81522 11.2008 4.81522 11.3586C4.81522 11.6321 4.94984 11.712 5.16034 11.7595C5.28853 11.7882 6.30997 11.7682 6.86603 10.532L7.57416 7.69699H6.42422L6.76922 6.42423H9.22697L8.91084 7.86924C9.34197 7.06417 10.2045 6.29922 11.0525 6.29922C11.958 6.29922 12.7055 6.94436 12.7055 8.18049C12.7055 8.49662 12.6623 8.84069 12.5473 9.22869L12.0873 10.8811C12.0443 11.054 12.0154 11.1975 12.0154 11.3269C12.0154 11.6142 12.1304 11.7578 12.346 11.7578C12.5617 11.7578 12.8348 11.5994 13.151 10.7231L13.7834 10.9672C13.4097 12.2753 12.7342 12.8212 11.8861 12.8212C10.8943 12.8212 10.4201 12.2323 10.4201 11.4271C10.4201 11.1973 10.4487 10.9528 10.5206 10.7084L10.995 9.01232C11.0525 8.82538 11.0668 8.65306 11.0668 8.49487C11.0668 7.94887 10.7363 7.61811 10.2045 7.61811C9.52884 7.61811 9.08328 8.10306 8.85328 9.03732L7.93328 12.7273H6.32359L6.61253 11.5677C6.13934 12.345 5.48216 12.8264 4.67153 12.8264C3.69409 12.8264 3.23416 12.2634 3.23416 11.4152Z" fill="#406C85"/>
</g>
<defs>
<clipPath id="clip0">
<rect width="16" height="16" fill="white" transform="translate(0 0.5)"/>
</clipPath>
</defs>
</svg>
