<svg width="16" height="17" viewBox="0 0 16 17" fill="none" xmlns="http://www.w3.org/2000/svg">
<g clip-path="url(#clip0)">
<path d="M14.5459 2.21387H7.6665C7.6665 3.03749 7.99369 3.82738 8.57608 4.40977C9.15847 4.99216 9.94836 5.31935 10.772 5.31935H12.0393V6.54292C12.0404 8.25647 13.4292 9.64532 15.1427 9.64644V2.81066C15.1427 2.48115 14.8756 2.21387 14.5459 2.21387Z" fill="#406C85"/>
<path d="M11.1426 5.64185H4.26318C4.26425 7.35538 5.65305 8.74422 7.36665 8.74534H8.63392V9.97282C8.6361 11.6864 10.0259 13.0742 11.7394 13.0742V6.23874C11.7394 5.90913 11.4722 5.6419 11.1426 5.6419V5.64185Z" fill="#406C85"/>
<path d="M7.73636 9.06763H0.856934C0.856934 10.7827 2.24736 12.1731 3.96241 12.1731H5.23366V13.3966C5.23478 15.1086 6.62117 16.4968 8.33321 16.5001V9.66447C8.33321 9.33486 8.06598 9.06763 7.73636 9.06763Z" fill="#406C85"/>
</g>
<defs>
<clipPath id="clip0">
<rect width="16" height="16" fill="white" transform="translate(0 0.5)"/>
</clipPath>
</defs>
</svg>
