<svg width="16" height="17" viewBox="0 0 16 17" fill="none" xmlns="http://www.w3.org/2000/svg">
<g clip-path="url(#clip0)">
<path d="M2.6478 3.30261C3.14279 3.70332 3.33136 3.67975 4.26634 3.61689L13.0819 3.09048C13.2704 3.09048 13.1133 2.90191 13.0504 2.87048L11.589 1.80979C11.3062 1.58979 10.9369 1.34623 10.2219 1.40123L1.68925 2.02193C1.37497 2.05336 1.31211 2.2105 1.43783 2.33621L2.6478 3.30261ZM3.17422 5.35328V14.6245C3.17422 15.1195 3.42564 15.3081 3.98348 15.2766L13.6711 14.7188C14.229 14.6874 14.2918 14.3417 14.2918 13.941V4.73258C14.2918 4.33188 14.1347 4.11188 13.7968 4.14331L3.67706 4.73258C3.29993 4.76401 3.17422 4.95258 3.17422 5.35328ZM12.7362 5.85613C12.799 6.13898 12.7362 6.41397 12.4533 6.4454L11.9897 6.53969V13.3831C11.5812 13.6031 11.2119 13.7288 10.8976 13.7288C10.4026 13.7288 10.2769 13.5717 9.89978 13.1081L6.84342 8.31536V12.951L7.80983 13.171C7.80983 13.171 7.80983 13.7288 7.03199 13.7288L4.88704 13.8545C4.82418 13.7288 4.88704 13.4224 5.10703 13.3595L5.66488 13.2024V7.07396L4.88704 7.0111C4.82418 6.72825 4.98132 6.32755 5.41345 6.29612L7.71555 6.13898L10.8898 10.9946V6.69683L10.0805 6.60254C10.0176 6.25683 10.2691 6.01327 10.5755 5.98184L12.7362 5.85613ZM0.966407 1.18909L9.84479 0.536959C10.9369 0.442676 11.2119 0.505532 11.9033 1.00052L14.7397 2.98833C15.2111 3.33404 15.3604 3.42047 15.3604 3.7976V14.7188C15.3604 15.4023 15.109 15.8109 14.2368 15.8738L3.92849 16.4945C3.27636 16.5259 2.96208 16.4316 2.61637 15.9995L0.526417 13.2888C0.149282 12.7938 0 12.4167 0 11.9846V2.27335C0 1.71551 0.251423 1.25194 0.966407 1.18909Z" fill="#406C85"/>
</g>
<defs>
<clipPath id="clip0">
<rect width="16" height="16" fill="white" transform="translate(0 0.5)"/>
</clipPath>
</defs>
</svg>
