<svg width="16" height="17" viewBox="0 0 16 17" fill="none" xmlns="http://www.w3.org/2000/svg">
<g clip-path="url(#clip0)">
<path d="M4.91688 12.124C3.49554 12.3695 2.14867 12.9351 0.978216 13.778C0.77596 13.9327 0.612435 14.1323 0.500554 14.361C0.388673 14.5898 0.3315 14.8414 0.333549 15.096V16.1667C0.333549 16.2551 0.368668 16.3399 0.43118 16.4024C0.493692 16.4649 0.578477 16.5 0.666883 16.5H15.3335C15.422 16.5 15.5067 16.4649 15.5693 16.4024C15.6318 16.3399 15.6669 16.2551 15.6669 16.1667V15.096C15.6689 14.8414 15.6118 14.5898 15.4999 14.361C15.388 14.1323 15.2245 13.9327 15.0222 13.778C13.8518 12.9351 12.5049 12.3695 11.0835 12.124C11.0246 12.1129 10.9638 12.1179 10.9075 12.1384C10.8512 12.1589 10.8015 12.1943 10.7635 12.2407C10.7082 12.3074 9.92355 14.1667 8.00022 14.1667C6.07688 14.1667 5.29222 12.306 5.23622 12.2394C5.1982 12.1933 5.14851 12.1583 5.09233 12.138C5.03616 12.1177 4.97556 12.1129 4.91688 12.124Z" fill="#406C85"/>
<path d="M10.3915 11.5C11.0841 11.0867 11.6577 10.501 12.0565 9.79994C12.4553 9.09891 12.6656 8.30649 12.6668 7.49998V6.16665C12.6668 5.12234 12.3144 4.10859 11.6668 3.28931C11.6668 1.88931 10.5722 1.70065 9.77284 1.56065C8.97351 1.42065 8.66684 1.32131 8.66684 0.833312C8.66677 0.786147 8.65669 0.739534 8.63727 0.696553C8.61785 0.653572 8.58953 0.615202 8.55417 0.583979C8.51929 0.551893 8.47786 0.527764 8.43274 0.513261C8.38762 0.498758 8.33989 0.494226 8.29284 0.499979C5.85084 0.802645 4.33351 1.87065 4.33351 3.28931C3.68592 4.10859 3.3336 5.12234 3.33351 6.16665V7.49998C3.33169 8.32545 3.54933 9.13657 3.96414 9.85025C4.37894 10.5639 4.97601 11.1545 5.69416 11.5615C6.41232 11.9685 7.22576 12.1773 8.05117 12.1665C8.87657 12.1557 9.68426 11.9257 10.3915 11.5ZM4.66684 7.49998V6.16665C4.66765 5.76928 4.74132 5.37544 4.88417 5.00464C4.89338 4.97899 4.90879 4.95601 4.92903 4.93774C4.94927 4.91948 4.97371 4.90651 5.00017 4.89998C5.02598 4.8934 5.05298 4.89306 5.07894 4.89897C5.1049 4.90488 5.12909 4.91688 5.14951 4.93398C5.96567 5.55723 6.97412 5.87538 8.00017 5.83331C9.02758 5.89208 10.0432 5.58949 10.8708 4.97798C10.8913 4.96011 10.9159 4.94752 10.9424 4.94132C10.9688 4.93511 10.9964 4.93548 11.0227 4.94238C11.049 4.94928 11.0732 4.96251 11.0932 4.98092C11.1132 4.99933 11.1284 5.02235 11.1375 5.04798C11.2674 5.40663 11.3337 5.7852 11.3335 6.16665V7.49998C11.3335 8.38403 10.9823 9.23188 10.3572 9.857C9.73208 10.4821 8.88423 10.8333 8.00017 10.8333C7.11612 10.8333 6.26827 10.4821 5.64315 9.857C5.01803 9.23188 4.66684 8.38403 4.66684 7.49998Z" fill="#406C85"/>
<path d="M9.33317 8.33333C9.70136 8.33333 9.99984 8.03486 9.99984 7.66667C9.99984 7.29848 9.70136 7 9.33317 7C8.96498 7 8.6665 7.29848 8.6665 7.66667C8.6665 8.03486 8.96498 8.33333 9.33317 8.33333Z" fill="#406C85"/>
<path d="M6.66667 8.33333C7.03486 8.33333 7.33333 8.03486 7.33333 7.66667C7.33333 7.29848 7.03486 7 6.66667 7C6.29848 7 6 7.29848 6 7.66667C6 8.03486 6.29848 8.33333 6.66667 8.33333Z" fill="#406C85"/>
<path d="M6.97153 9.39587C6.94821 9.4879 6.95635 9.58507 6.99464 9.67194C7.03294 9.7588 7.0992 9.83035 7.18286 9.87521C7.27519 9.92498 7.37236 9.96519 7.47286 9.99521C7.66036 10.0514 7.85511 10.0797 8.05086 10.0792H8.05486C8.24969 10.0798 8.44355 10.0517 8.63019 9.99587C8.73096 9.96573 8.82837 9.92529 8.92086 9.87521C9.00368 9.83005 9.06917 9.75868 9.10706 9.67229C9.14495 9.5859 9.15309 9.48938 9.13021 9.39787C9.10733 9.30635 9.05473 9.22502 8.98064 9.16663C8.90656 9.10823 8.81519 9.07608 8.72086 9.07521H7.38753C7.29233 9.07449 7.19963 9.10568 7.12423 9.1638C7.04882 9.22192 6.99506 9.30363 6.97153 9.39587Z" fill="#406C85"/>
</g>
<defs>
<clipPath id="clip0">
<rect width="16" height="16" fill="white" transform="translate(0 0.5)"/>
</clipPath>
</defs>
</svg>
