<svg width="16" height="17" viewBox="0 0 16 17" fill="none" xmlns="http://www.w3.org/2000/svg">
<path fill-rule="evenodd" clip-rule="evenodd" d="M8 16.5C12.4183 16.5 16 12.9183 16 8.5C16 4.08172 12.4183 0.5 8 0.5C3.58172 0.5 0 4.08172 0 8.5C0 12.9183 3.58172 16.5 8 16.5ZM4.61098 6.91121V12.069C4.69074 12.0408 4.77656 12.0254 4.86597 12.0254C5.28844 12.0254 5.63095 12.3689 5.63095 12.7925C5.63095 13.1414 5.39873 13.4358 5.08091 13.529C5.26678 13.6602 5.48862 13.7305 5.71594 13.7301C6.32622 13.7301 6.82091 13.234 6.82091 12.622V6.91121C6.82091 5.96972 7.58201 5.20648 8.52085 5.20648C9.4597 5.20648 10.2208 5.96972 10.2208 6.91121C10.2208 7.82985 9.49618 8.57881 8.58885 8.6146V8.61607C7.98642 8.62517 7.50089 9.11774 7.50089 9.72401C7.50089 10.336 7.99557 10.8321 8.60585 10.8321V10.8312C10.726 10.7858 12.4307 9.04815 12.4307 6.91121C12.4307 4.74576 10.6802 2.99034 8.52085 2.99034C6.36148 2.99034 4.61098 4.74576 4.61098 6.91121ZM9.37083 9.72401C9.37083 10.1477 9.02832 10.4911 8.60585 10.4911C8.18338 10.4911 7.84088 10.1477 7.84088 9.72401C7.84088 9.30035 8.18338 8.95688 8.60585 8.95688C9.02832 8.95688 9.37083 9.30035 9.37083 9.72401Z" fill="#406C85"/>
</svg>
