<svg width="16" height="17" viewBox="0 0 16 17" fill="none" xmlns="http://www.w3.org/2000/svg">
<circle cx="8" cy="8.5" r="8" fill="#406C85"/>
<path d="M13.3025 7.642L11.3427 4.91261C11.2463 4.78477 11.1217 4.68099 10.9785 4.60941C10.8353 4.53782 10.6775 4.50037 10.5175 4.5H5.48158C5.31919 4.50082 5.15924 4.53962 5.01452 4.6133C4.8698 4.68697 4.74432 4.79347 4.64811 4.9243L2.70405 7.62963C2.55394 7.8325 2.48269 8.08302 2.50357 8.33453C2.52444 8.58603 2.63602 8.82138 2.81751 8.99673L7.28124 13.1503C7.4726 13.3353 7.72809 13.4392 7.99428 13.4403C8.26047 13.4413 8.51676 13.3394 8.70954 13.1558L13.1953 8.98092C13.3701 8.80733 13.477 8.5769 13.4967 8.33131C13.5164 8.08573 13.4475 7.84122 13.3025 7.642ZM10.8695 9.26768L8.11883 11.83C8.08704 11.8595 8.04528 11.8758 8.00192 11.8758C7.95856 11.8758 7.91681 11.8595 7.88502 11.83L5.13086 9.26768C5.10556 9.24413 5.08031 9.17978 5.08031 9.17978C5.07268 9.14607 5.07539 9.11083 5.08809 9.07868C5.10079 9.04653 5.12288 9.01895 5.15149 8.99955C5.1801 8.98015 5.21389 8.96982 5.24846 8.96991H10.7499C10.7844 8.96996 10.8181 8.98039 10.8466 8.99984C10.8751 9.0193 10.8971 9.04688 10.9097 9.079C10.9223 9.11112 10.925 9.1463 10.9173 9.17995C10.9097 9.2136 10.8921 9.24417 10.8668 9.26768H10.8695ZM11.3929 7.50103C11.3787 7.52929 11.3568 7.55301 11.3299 7.56954C11.3029 7.58606 11.2718 7.59473 11.2402 7.59455H4.75814C4.72621 7.59455 4.69492 7.58566 4.66776 7.56888C4.6406 7.55209 4.61865 7.52808 4.60437 7.49952C4.59009 7.47096 4.58405 7.43899 4.58692 7.4072C4.58978 7.3754 4.60145 7.34503 4.62061 7.31948L5.6088 5.94413C5.62481 5.92277 5.64558 5.90544 5.66945 5.89351C5.69332 5.88157 5.71965 5.87536 5.74634 5.87536H10.252C10.2787 5.87546 10.305 5.88172 10.3288 5.89365C10.3527 5.90558 10.3735 5.92285 10.3895 5.94413L11.3777 7.31948C11.3971 7.34525 11.4088 7.37596 11.4114 7.40808C11.4141 7.44019 11.4077 7.47241 11.3929 7.50103Z" fill="#EBF2F6"/>
</svg>
