<svg width="16" height="17" viewBox="0 0 16 17" fill="none" xmlns="http://www.w3.org/2000/svg">
<g clip-path="url(#clip0)">
<path d="M13 0.5H3C2.20462 0.500882 1.44207 0.817236 0.879654 1.37965C0.317236 1.94207 0.000882284 2.70462 0 3.5L0 13.5C0 14.2956 0.316071 15.0587 0.87868 15.6213C1.44129 16.1839 2.20435 16.5 3 16.5H13C13.7956 16.5 14.5587 16.1839 15.1213 15.6213C15.6839 15.0587 16 14.2956 16 13.5V3.5C15.9991 2.70462 15.6828 1.94207 15.1203 1.37965C14.5579 0.817236 13.7954 0.500882 13 0.5V0.5ZM13.6667 8.5C13.6667 9.62076 13.3343 10.7164 12.7117 11.6482C12.089 12.5801 11.204 13.3064 10.1685 13.7353C9.13309 14.1642 7.99371 14.2764 6.89449 14.0578C5.79526 13.8391 4.78556 13.2994 3.99306 12.5069C3.20056 11.7144 2.66087 10.7047 2.44222 9.60551C2.22357 8.50629 2.33579 7.36691 2.76468 6.33146C3.19358 5.29601 3.91989 4.411 4.85177 3.78834C5.78365 3.16568 6.87924 2.83333 8 2.83333C9.50289 2.83333 10.9442 3.43036 12.0069 4.49306C13.0696 5.55577 13.6667 6.99711 13.6667 8.5Z" fill="#406C85"/>
<path d="M10 8.16667H8.33333V5.16667C8.33333 4.98986 8.2631 4.82029 8.13807 4.69526C8.01305 4.57024 7.84348 4.5 7.66667 4.5C7.48986 4.5 7.32029 4.57024 7.19526 4.69526C7.07024 4.82029 7 4.98986 7 5.16667V8.83333C7 9.01014 7.07024 9.17971 7.19526 9.30474C7.32029 9.42976 7.48986 9.5 7.66667 9.5H10C10.1768 9.5 10.3464 9.42976 10.4714 9.30474C10.5964 9.17971 10.6667 9.01014 10.6667 8.83333C10.6667 8.65652 10.5964 8.48695 10.4714 8.36193C10.3464 8.2369 10.1768 8.16667 10 8.16667Z" fill="#406C85"/>
</g>
<defs>
<clipPath id="clip0">
<rect width="16" height="16" fill="white" transform="translate(0 0.5)"/>
</clipPath>
</defs>
</svg>
