<svg width="38px" height="46px" viewBox="0 0 38 46" version="1.1" xmlns="http://www.w3.org/2000/svg" xmlns:xlink="http://www.w3.org/1999/xlink">
    <g id="Page-1" stroke="none" stroke-width="1" fill="none" fill-rule="evenodd">
        <g id="startpage-1920" transform="translate(-751.000000, -3666.000000)">
            <g id="Group-16" transform="translate(743.000000, 3658.000000)">
                <g id="Group-10" transform="translate(0.000000, 4.000000)">
                    <path d="M25.5051756,35.7437523 L23.0644976,35.7437523" id="Shape" stroke="#2C4C7F" stroke-width="4" stroke-linecap="round" stroke-linejoin="round" transform="translate(24.284837, 36.557312) rotate(-45.000000) translate(-24.284837, -36.557312) "></path>
                    <path d="M18.4719289,45.3868446 L18.4719289,34.4054208 C18.4719289,31.0355478 21.2037508,28.3037259 24.5736238,28.3037259 C27.9434969,28.3037259 30.6753187,31.0355478 30.6753187,34.4054208 L30.6753187,45.3884717" id="Shape" stroke="#2C4C7F" stroke-width="4" stroke-linecap="round" stroke-linejoin="round" transform="translate(24.573624, 36.846099) rotate(-45.000000) translate(-24.573624, -36.846099) "></path>
                    <path d="M28.9568155,21.9371928 L26.5161375,21.9371928" id="Shape" stroke="#2C4C7F" stroke-width="4" stroke-linecap="round" stroke-linejoin="round" transform="translate(27.736477, 22.750752) rotate(-45.000000) translate(-27.736477, -22.750752) "></path>
                    <path d="M24.5122987,37.8300319 L24.5122987,19.5265743 C24.5122986,17.3466486 25.6752751,15.3323142 27.5631461,14.2423514 C29.4510171,13.1523885 31.7769701,13.1523885 33.6648411,14.2423514 C35.5527121,15.3323142 36.7156885,17.3466486 36.7156885,19.5265743 L36.7156885,37.831659" id="Shape" stroke="#2C4C7F" stroke-width="4" stroke-linecap="round" stroke-linejoin="round" transform="translate(30.613994, 25.628269) rotate(-45.000000) translate(-30.613994, -25.628269) "></path>
                    <path d="M18.8481332,27.9009693 C15.9346831,27.9005379 13.1404365,29.0577102 11.0803162,31.1178305 C9.02019588,33.1779508 7.86302353,35.9721974 7.86345494,38.8856475" id="Shape" stroke="#2C4C7F" stroke-width="4" stroke-linecap="round" stroke-linejoin="round" transform="translate(13.355794, 33.393308) rotate(-45.000000) translate(-13.355794, -33.393308) "></path>
                    <path d="M33.0522442,26.9676817 C34.63392,24.7349834 35.4864252,22.0677786 35.4929222,19.3316139 C35.5073401,13.6729777 31.9629454,8.61619845 26.6388025,6.6994632 C21.3146596,4.78272796 15.3603845,6.41990787 11.764651,10.789241" id="Shape" stroke="#2C4C7F" stroke-width="4" stroke-linecap="round" stroke-linejoin="round" transform="translate(23.628808, 16.437455) rotate(-45.000000) translate(-23.628808, -16.437455) "></path>
                    <rect id="Rectangle-2" x="0" y="0" width="48" height="48"></rect>
                </g>
            </g>
        </g>
    </g>
</svg>