<?xml version="1.0" encoding="UTF-8"?>
<svg width="48px" height="48px" viewBox="0 0 48 48" version="1.1" xmlns="http://www.w3.org/2000/svg" xmlns:xlink="http://www.w3.org/1999/xlink">
    <g id="Assets" stroke="none" stroke-width="1" fill="none" fill-rule="evenodd">
        <g id="Group-18">
            <path d="M7.9419956,14.1583912 L7.60757802,13.6936879 C6.56001758,12.2381275 4.77927033,11.6539516 3.07368791,12.2041055 C1.36678681,12.7545231 0.263841758,14.2688967 0.263841758,16.062567 L0.263841758,34.2558857 C0.263841758,35.1763253 1.01021538,35.9229626 1.93091868,35.9229626 C2.85135824,35.9229626 3.5979956,35.1763253 3.5979956,34.2558857 C3.5979956,34.2558857 3.59562198,16.0100835 3.5979956,15.9839736 L3.5979956,15.9850286 C3.5979956,15.9850286 3.42445714,13.7461714 7.9419956,14.1583912" id="Fill-21" fill="#FFFFFF"></path>
            <path d="M46.0691341,12.0000791 C45.1486945,12.0000791 44.4020571,12.7464527 44.4020571,13.6668923 L44.4020571,31.4706725 C45.3409582,31.9910242 46.6279912,32.1708923 47.7124747,30.3985846 L47.7132659,30.3922549 C47.7267165,30.2537934 47.736211,13.6668923 47.736211,13.6668923 C47.736211,12.7464527 46.9895736,12.0000791 46.0691341,12.0000791" id="Fill-23" fill="#FFFFFF"></path>
            <path d="M29.6741011,13.693767 C28.6265407,12.2379429 26.8457934,11.6540308 25.140211,12.2041846 C23.4330462,12.7543385 22.3301011,14.2689758 22.3301011,16.0623824 L22.3301011,31.4711736 C23.2692659,31.9912615 24.5562989,32.1706022 25.6407824,30.3964484 C25.6410462,30.3951297 25.6410462,30.3935473 25.6413099,30.3919648 C25.6550242,30.2535033 25.6637275,16.0064703 25.6642549,15.984844 C25.6637275,15.9779868 25.4978374,13.746778 30.0085187,14.1584703 L29.6741011,13.693767 Z" id="Fill-27" fill="#FFFFFF"></path>
            <path d="M22.2457055,33.3359473 C22.0175736,33.2048703 21.3321231,32.7188044 21.074189,32.3606505 L9.04860659,15.6656176 C7.29212308,15.4989363 6.07392527,15.802233 5.35788132,16.2706286 L18.2846505,34.2329143 C18.5130462,34.550189 18.7794198,34.8210462 19.0692659,35.0528703 C19.7760791,35.6183209 20.6377055,35.9266286 21.5386286,35.9266286 C21.9611341,35.9266286 22.3920791,35.860167 22.8182769,35.7227604 C23.3977055,35.5360352 23.9059253,35.2364308 24.3263209,34.8540132 C25.0199473,34.2228923 25.4706725,33.3631121 25.5919912,32.3936176 C24.4842989,34.1292659 23.177222,33.8834637 22.2457055,33.3359473" id="Fill-29" fill="#FFFFFF"></path>
            <path d="M44.3756044,33.3359473 C44.1474725,33.2048703 43.462022,32.7188044 43.2040879,32.3606505 L31.1785055,15.6656176 C29.422022,15.4989363 28.2038242,15.802233 27.4877802,16.2706286 L40.4145495,34.2329143 C40.6429451,34.550189 40.9093187,34.8210462 41.1991648,35.0528703 C41.905978,35.6183209 42.7676044,35.9266286 43.6685275,35.9266286 C44.091033,35.9266286 44.521978,35.860167 44.9481758,35.7227604 C45.5276044,35.5360352 46.0358242,35.2364308 46.4562198,34.8540132 C47.1498462,34.2228923 47.6005714,33.3631121 47.7218901,32.3936176 C46.6141978,34.1292659 45.3071209,33.8834637 44.3756044,33.3359473" id="Fill-31" fill="#FFFFFF"></path>
        </g>
    </g>
</svg>